<svg xmlns="http://www.w3.org/2000/svg" viewBox="0 0 64 64" width="64" height="64" role="img" aria-label="Re-halli: Marathahalli Chapter">
  <rect width="64" height="64" rx="12" fill="#030910"/>
  <rect x="0.75" y="0.75" width="62.5" height="62.5" rx="11.25" fill="none" stroke="#00e5ff" stroke-opacity="0.3" stroke-width="1.5"/>
  <circle cx="32.0" cy="32.0" r="23.70" fill="none" stroke="#00e5ff" stroke-width="2.6"/>
  <g stroke="#00e5ff" stroke-width="1.55" stroke-linecap="round">
    
    <line x1="32.00" y1="24.80" x2="32.00" y2="9.00"/>
    <line x1="33.86" y1="25.05" x2="37.95" y2="9.78"/>
    <line x1="35.60" y1="25.76" x2="43.50" y2="12.08"/>
    <line x1="37.09" y1="26.91" x2="48.26" y2="15.74"/>
    <line x1="38.24" y1="28.40" x2="51.92" y2="20.50"/>
    <line x1="38.95" y1="30.14" x2="54.22" y2="26.05"/>
    <line x1="39.20" y1="32.00" x2="55.00" y2="32.00"/>
    <line x1="38.95" y1="33.86" x2="54.22" y2="37.95"/>
    <line x1="38.24" y1="35.60" x2="51.92" y2="43.50"/>
    <line x1="37.09" y1="37.09" x2="48.26" y2="48.26"/>
    <line x1="35.60" y1="38.24" x2="43.50" y2="51.92"/>
    <line x1="33.86" y1="38.95" x2="37.95" y2="54.22"/>
    <line x1="32.00" y1="39.20" x2="32.00" y2="55.00"/>
    <line x1="30.14" y1="38.95" x2="26.05" y2="54.22"/>
    <line x1="28.40" y1="38.24" x2="20.50" y2="51.92"/>
    <line x1="26.91" y1="37.09" x2="15.74" y2="48.26"/>
    <line x1="25.76" y1="35.60" x2="12.08" y2="43.50"/>
    <line x1="25.05" y1="33.86" x2="9.78" y2="37.95"/>
    <line x1="24.80" y1="32.00" x2="9.00" y2="32.00"/>
    <line x1="25.05" y1="30.14" x2="9.78" y2="26.05"/>
    <line x1="25.76" y1="28.40" x2="12.08" y2="20.50"/>
    <line x1="26.91" y1="26.91" x2="15.74" y2="15.74"/>
    <line x1="28.40" y1="25.76" x2="20.50" y2="12.08"/>
    <line x1="30.14" y1="25.05" x2="26.05" y2="9.78"/>
  </g>
  <circle cx="32.0" cy="32.0" r="6.00" fill="#030910"/>
  <circle cx="32.0" cy="32.0" r="4.70" fill="#ffb020"/>
</svg>
